<svg xmlns="http://www.w3.org/2000/svg" width="552.58" height="864.478" viewBox="0 0 552.58 864.478">
  <g id="Seta_Laranja" data-name="Seta Laranja" transform="translate(0.376 0.376)">
    <g id="Grupo_1350" data-name="Grupo 1350" transform="translate(-573.063 1165.219) rotate(-90)" opacity="0.3">
      <path id="Caminho_1208" data-name="Caminho 1208" d="M195.733,563.517l314.782-328.5a110.656,110.656,0,0,0-3.336-156.459l-2.966-2.847a110.665,110.665,0,0,0-156.466,3.336L32.965,407.546A110.656,110.656,0,0,0,36.3,564.006l2.973,2.847A110.657,110.657,0,0,0,195.733,563.517Z" transform="translate(567.604 1114.341) rotate(-90)" fill="none" stroke="#ea5c14" stroke-width="0.75"/>
      <path id="Caminho_1209" data-name="Caminho 1209" d="M37.074,28.981C81.327-11.594,150.516-8.035,193.861,33.5L516.606,342.772a112.547,112.547,0,0,1,7.991,8.479,110.433,110.433,0,0,1,26.694,70.138A112.351,112.351,0,0,1,520,502.141c-3.4,3.545-160.032,166.509-160.032,166.509a195.831,195.831,0,0,0-46.647-207.538l-34.531-33.861.07-.077L35.106,193.6A112.728,112.728,0,0,1,37.074,28.981Z" transform="translate(301.12 1125.268) rotate(-90)" fill="none" stroke="#ea5c14" stroke-width="0.75"/>
    </g>
  </g>
</svg>
