<svg id="Seta_Verde" xmlns="http://www.w3.org/2000/svg" xmlns:xlink="http://www.w3.org/1999/xlink" width="557.067" height="868.96" viewBox="0 0 557.067 868.96">
  <defs>
    <clipPath id="clip-path">
      <rect id="Retângulo_687" data-name="Retângulo 687" width="557.067" height="868.96" fill="none"/>
    </clipPath>
  </defs>
  <g id="Grupo_1433" data-name="Grupo 1433" transform="translate(875.513 -55.877) rotate(90)" opacity="0.3">
    <g id="Grupo_1349" data-name="Grupo 1349" transform="translate(55.877 875.513) rotate(-90)">
      <g id="Grupo_1348" data-name="Grupo 1348" clip-path="url(#clip-path)">
        <path id="Caminho_1208" data-name="Caminho 1208" d="M195.733,563.517l314.782-328.5a110.656,110.656,0,0,0-3.336-156.459l-2.966-2.847a110.665,110.665,0,0,0-156.466,3.336L32.965,407.546A110.656,110.656,0,0,0,36.3,564.006l2.973,2.847A110.657,110.657,0,0,0,195.733,563.517Z" transform="translate(13.172 268.727)" fill="none" stroke="#009874" stroke-width="0.75"/>
        <path id="Caminho_1209" data-name="Caminho 1209" d="M37.074,28.981C81.327-11.594,150.516-8.035,193.861,33.5L516.606,342.772a112.547,112.547,0,0,1,7.991,8.479,110.433,110.433,0,0,1,26.694,70.138A112.351,112.351,0,0,1,520,502.141c-3.4,3.545-160.032,166.509-160.032,166.509a195.831,195.831,0,0,0-46.647-207.538l-34.531-33.861.07-.077L35.106,193.6A112.728,112.728,0,0,1,37.074,28.981Z" transform="translate(2.245 2.243)" fill="none" stroke="#009874" stroke-width="0.75"/>
      </g>
    </g>
  </g>
</svg>
